<?xml version="1.0" encoding="UTF-8"?>
<svg width="24px" height="21px" viewBox="0 0 24 21" version="1.1" xmlns="http://www.w3.org/2000/svg" xmlns:xlink="http://www.w3.org/1999/xlink">
    <title>Stroke 1 Copy 2</title>
    <g id="Main" stroke="none" stroke-width="1" fill="none" fill-rule="evenodd">
        <g id="Coursepage_Desktop_R3" transform="translate(-743.000000, -3800.000000)" stroke="#000000">
            <path d="M765.692,3801 C765.862,3801 766,3801.137 766,3801.306 L766,3819.694 C766,3819.704 765.995,3819.712 765.995,3819.722 C765.993,3819.74 765.989,3819.757 765.983,3819.775 C765.977,3819.798 765.97,3819.818 765.959,3819.838 C765.955,3819.845 765.955,3819.853 765.951,3819.859 C765.942,3819.873 765.931,3819.883 765.92,3819.895 C765.914,3819.902 765.91,3819.908 765.904,3819.915 C765.879,3819.938 765.851,3819.956 765.821,3819.97 C765.814,3819.974 765.806,3819.976 765.797,3819.979 C765.764,3819.991 765.729,3820 765.693,3820 C765.655,3820 765.62,3819.992 765.584,3819.979 C765.575,3819.975 765.567,3819.971 765.558,3819.967 C765.547,3819.961 765.536,3819.958 765.525,3819.952 L759.369,3816.027 L744.308,3816.027 C744.138,3816.027 744,3815.891 744,3815.721 L744,3801.306 C744,3801.137 744.138,3801 744.308,3801 L765.692,3801 Z" id="Stroke-1-Copy-2"></path>
        </g>
    </g>
</svg>