<svg id="Layer_1" data-name="Layer 1" xmlns="http://www.w3.org/2000/svg" viewBox="0 0 250.89 201.23"><path d="M45,37.11a.42.42,0,0,0-.41-.41c-.24,0-.36.1-.59.46a2.43,2.43,0,0,1-.44.53,1.29,1.29,0,0,0,.4.06C44.41,37.75,45,37.56,45,37.11Z"/><path d="M42.38,36.39a1.56,1.56,0,0,1,.72-1.33.75.75,0,0,0-.26,0,1.37,1.37,0,1,0,0,2.73,1.09,1.09,0,0,0,.26,0A1.59,1.59,0,0,1,42.38,36.39Z"/><path d="M44.61,36.07a.41.41,0,0,0,.41-.41c0-.27-.32-.64-1-.64a1.29,1.29,0,0,0-.4.06,2.27,2.27,0,0,1,.44.54C44.25,36,44.37,36.07,44.61,36.07Z"/><polygon points="48.07 65.41 48.99 69.72 55.65 69.72 54.72 65.41 48.07 65.41"/><path d="M60.35,44.42a5.45,5.45,0,0,0-4.35,2,5.68,5.68,0,0,0-1,4.86,8.7,8.7,0,0,0,8.09,6.65,5.44,5.44,0,0,0,4.35-2,5.68,5.68,0,0,0,1-4.86A8.71,8.71,0,0,0,60.35,44.42Zm6.49,11a4.73,4.73,0,0,1-3.77,1.67,7.91,7.91,0,0,1-7.35-6.06,4.93,4.93,0,0,1,.86-4.23,4.74,4.74,0,0,1,3.77-1.68,7.91,7.91,0,0,1,7.35,6.07A4.94,4.94,0,0,1,66.84,55.47Z"/><path d="M64.46,51.06l-4.52-2.59a.36.36,0,0,0-.41,0,.37.37,0,0,0-.15.38l1,4.73a.37.37,0,0,0,.37.3.38.38,0,0,0,.19,0l3.56-2.14a.4.4,0,0,0,.18-.33A.37.37,0,0,0,64.46,51.06ZM61,52.93l-.69-3.4,3.25,1.86Z"/><path d="M219.55,171.39a.54.54,0,0,0,.14.36,1.49,1.49,0,0,0,1.1.37l1.71.07h0a.5.5,0,0,0,0-1l-1.47-.06c.61-.58,1.2-1.19,1.78-1.8a.5.5,0,0,0,.1-.52.5.5,0,0,0-.42-.32l-2.43-.25a.5.5,0,0,0-.55.44.5.5,0,0,0,.45.55l1.42.15c-.56.57-1.13,1.12-1.71,1.66A.57.57,0,0,0,219.55,171.39Z"/><path d="M217.08,162a.5.5,0,0,0,.5.5h0a16.36,16.36,0,0,1,1.71.05l-2.23,1.84a.47.47,0,0,0-.16.51.49.49,0,0,0,.4.37,29.57,29.57,0,0,0,4.2.31h.74a.51.51,0,0,0,.49-.51.54.54,0,0,0-.52-.49,27.4,27.4,0,0,1-3.62-.15l2.27-1.87a.49.49,0,0,0,.17-.52.5.5,0,0,0-.43-.36,27.28,27.28,0,0,0-3-.17A.5.5,0,0,0,217.08,162Z"/><path d="M221.82,159.64a49,49,0,0,0,5.8.38h0a.5.5,0,0,0,0-1c-1.45,0-2.91-.08-4.37-.23l3.36-2.35a1.56,1.56,0,0,0,.78-1.06.47.47,0,0,0-.12-.39.48.48,0,0,0-.37-.17c-1.44,0-2.91,0-4.35-.12a.5.5,0,0,0-.53.47.5.5,0,0,0,.48.52c1.08.06,2.18.1,3.27.12l-4.17,2.92a.5.5,0,0,0-.2.53A.51.51,0,0,0,221.82,159.64Z"/><path d="M184.57,75.66c.14.33.27.66.39,1a17.31,17.31,0,0,1,1,7.68.49.49,0,0,0,.44.54h0a.5.5,0,0,0,.5-.45,18.27,18.27,0,0,0-1-8.12c-.13-.34-.26-.69-.4-1a11.73,11.73,0,0,1-.89-2.81,8,8,0,0,1,.31-2.93,7.82,7.82,0,0,0,0-4.86.5.5,0,0,0-.64-.29A.5.5,0,0,0,184,65a6.87,6.87,0,0,1,0,4.28,8.73,8.73,0,0,0-.32,3.29A13,13,0,0,0,184.57,75.66Z"/><path d="M181.55,78.54l.39.57a8.2,8.2,0,0,1,1.22,5.33.51.51,0,0,0,.44.56h.06a.5.5,0,0,0,.49-.44,9.12,9.12,0,0,0-1.37-6c-.13-.21-.27-.41-.41-.61a7.88,7.88,0,0,1-.76-1.25,4.33,4.33,0,0,1-.32-3.3.5.5,0,0,0-.95-.33,5.3,5.3,0,0,0,.36,4A7.5,7.5,0,0,0,181.55,78.54Z"/><path d="M168.56,17.89a.38.38,0,0,0-.06.53.38.38,0,0,0,.29.14.36.36,0,0,0,.24-.09,4.18,4.18,0,0,1,5.23-.09.38.38,0,0,0,.46-.6A5,5,0,0,0,168.56,17.89Z"/><path d="M176.79,113.11a.47.47,0,0,0,.17,0,.5.5,0,0,0,.16-1,9.84,9.84,0,0,1-6.3-11.59.5.5,0,0,0-.37-.6.49.49,0,0,0-.6.37,10.83,10.83,0,0,0,6.94,12.77Z"/><path d="M170.7,19.82a.68.68,0,1,0,.67.68A.67.67,0,0,0,170.7,19.82Z"/><path d="M250.39,200.23h-18a4.68,4.68,0,0,0-2.78-8.45h-5.92a12.51,12.51,0,0,0,1.22-.6c2.55-1.49,4.3-4,5.83-6.21a.49.49,0,0,0,0-.51.5.5,0,0,0-.42-.28c-3.67-.2-6.62-3.13-9.32-6.11l-4.14-4.56a8.47,8.47,0,0,1-1.35-1.77,8.24,8.24,0,0,1-.67-2.7,11.47,11.47,0,0,0-.51-2.42.49.49,0,0,0-.33-.31.51.51,0,0,0-.45.09c-1.6,1.31-3.59,2.93-5.85,3.22a12.88,12.88,0,0,1-2.63,0q-1.37-.12-2.76-.21l-5.49-32.94v-7.9L202,104.6a21.81,21.81,0,0,0,3.7.44,3.61,3.61,0,0,0,1.41-.21c1.16-.5,1.41-2.37,1.53-4.34.76-.47,1.53-.91,2.3-1.34,2.28-1.29,4.44-2.5,5.75-4.32a9.25,9.25,0,0,0,.67-1.08,7.32,7.32,0,0,0,.43-4.72,104.57,104.57,0,0,0-4.63-15.8,3.63,3.63,0,0,0,1.46-3.94v0a34.47,34.47,0,0,0-2.28-5.62.5.5,0,0,0-.44-.27l-.74,0-.24-.61,3.53-16.5a.52.52,0,0,0-.1-.42.51.51,0,0,0-.39-.19H202.2a16,16,0,0,0-3.78-3.24c-4.76-2.86-10.75-2.68-15.57-2.53a.48.48,0,0,0-.29.1l-.05,0a17.64,17.64,0,0,1-1.19-5.52,7.93,7.93,0,0,1,2.49-5.06c.16-.18.32-.35.45-.51a8.14,8.14,0,0,0,.66-.92h0s0-.1.08-.15c.14-.23.27-.47.4-.72s.23-.46.34-.7L186,26l.36-1,.19-.54c.06-.2.12-.4.19-.61.1-.37.21-.75.3-1.14l.09-.38c.1-.47.2-1,.29-1.45v0a31.14,31.14,0,0,0,.38-3.38c0-.09,0-.17,0-.25,0-.55,0-1.11,0-1.67,0-.27,0-.53,0-.8a5.87,5.87,0,0,0,3.9-5.57c.08-2.85-2-6-4.08-7.49-4.91-3.41-9.92-1-10.83,0a4.33,4.33,0,0,0-1.37,3.14h-.1l-.37,0c-.3,0-.6.08-.89.12l-.38.07c-.37.08-.74.16-1.09.27l-.26.08-.8.29-.44.19-.59.28c-.24.13-.48.26-.71.4l-.45.29c-.18.12-.35.25-.52.38a2.43,2.43,0,0,0-.25.2,11.55,11.55,0,0,0-1,.87l-.08.08-.3.3A.33.33,0,0,0,167,9c-3.46,4-4.18,9.55-4.32,11.15a33.42,33.42,0,0,0-.07,3.49q-.51.66-1.08,1.29a1.64,1.64,0,0,0-.36,1.24,1.3,1.3,0,0,0,.77,1,2.48,2.48,0,0,0,.94.2c.15,1.29.35,2.61.63,4a5,5,0,0,0,1.92,2.7,5.32,5.32,0,0,0,2.26.64h.1c.54.07,1.06.11,1.57.14-.08.44-.22.95-.3,1.25A7.83,7.83,0,0,1,166.72,40h0c-3.81,0-8.13,0-12,1.53A31,31,0,0,0,150.06,44c-4.67,2.82-9.81,6.24-14.94,10l-.19-.33a.49.49,0,0,0-.66-.19c-.67.34-2.75,1.77-4.64,3.09l-.23.15a.52.52,0,0,0-.19.56c.18.58.38,1.2.61,1.85l-.2.15c-3.51,2.51-10.82,7.73-18.15,7.73H95.53L88.29,33a.5.5,0,0,0-.49-.4H27.41a.47.47,0,0,0-.38.19.46.46,0,0,0-.1.42l8.79,41.22v3.63H19a.5.5,0,0,0-.5.5v8a.5.5,0,0,0,.5.5H35.5L16.63,200.23H.5a.5.5,0,0,0-.5.5.5.5,0,0,0,.5.5H250.39a.5.5,0,0,0,.5-.5A.5.5,0,0,0,250.39,200.23ZM19.46,79.08H146c-.29,1.42-.64,3.09-1,4.73l-.48,2.27H123.91c-1.33-.61-2.74-1.19-4.29-1.75l-1-.34c-2.94-1.11-9.83-3.7-15.23.56a6.45,6.45,0,0,0-1.35,1.53H19.46ZM130.09,59.79a41.45,41.45,0,0,0,2.78,6,44.2,44.2,0,0,0,3.18,5l-7.86,4.28a25.89,25.89,0,0,1-6.58,2.82c-.37.08-.74.13-1.12.18a31.62,31.62,0,0,1-4.34.21l-44.31,0a.91.91,0,0,1-.51-.25.47.47,0,0,1-.09-.06,1.06,1.06,0,0,1-.28-.81c.09-1.37,1.2-1.65,2.12-1.65h0l1.17,0,1.73,0a3.08,3.08,0,0,0,1.7-.47l.22-.15a5.84,5.84,0,0,0,.51-.5,4.89,4.89,0,0,0,.35-.5,2.84,2.84,0,0,0,.39-1.37,3.32,3.32,0,0,0-2.25-3,6.43,6.43,0,0,0-2.71-.43l-.08,0-.22,0-.25,0a.25.25,0,0,0-.12,0c-2,.38-4.36,1.78-7,4.19-.2.18-.42.38-.64.55a1.41,1.41,0,0,1-1,.35.56.56,0,0,1-.1-.35s0,0,0-.07c0-1.1,1.57-3.21,3-4.41a12.21,12.21,0,0,1,8.05-2.8,38,38,0,0,1,4.37.26c.14,0,.47.07.91.15a35.13,35.13,0,0,0,5.07.65h25.36c7.57,0,15-5.32,18.59-7.87Zm4.22-5.26.23.4,5.28,9.28,2.85,5,.22.38-.36.24A43.56,43.56,0,0,1,138.38,72a31.59,31.59,0,0,1-4.63-6.76,41.34,41.34,0,0,1-2.87-6.21l-.1-.3c-.19-.52-.35-1-.5-1.5C131.36,56.5,133.34,55.13,134.31,54.53Zm28.84-13.46a28.61,28.61,0,0,0-3.05,4.49l-.06.15a1.43,1.43,0,0,0-.09.5,1.54,1.54,0,0,0,.06.43s0,0,.05.07a1.32,1.32,0,0,0,.69.74l1.57.72.12,0v.18a11,11,0,0,1-.51,2.54,1.51,1.51,0,0,0,0,1.22,1.49,1.49,0,0,0,.6.56A8.43,8.43,0,0,0,165.84,54h.08a.5.5,0,0,0,.08-1,7.37,7.37,0,0,1-3-1.13.86.86,0,0,1-.23-.17c0-.07,0-.32.08-.45a11.75,11.75,0,0,0,.55-2.76,1,1,0,0,0-.7-1.21l-1.2-.55-.36-.17a.38.38,0,0,1-.21-.22s0-.07,0-.11a.38.38,0,0,1,0-.17l.19-.33a27.25,27.25,0,0,1,3.27-4.63s0,0,0,0l1.8,0,.82,4.69.09.5.09.5,1,5.87h0a14,14,0,0,1,0,4.77.49.49,0,0,0,.37.59h.11a.49.49,0,0,0,.49-.39,14.43,14.43,0,0,0,0-5,23.55,23.55,0,0,1,5.63-5.9l.62-.5.61-.48,0,0c1-.82,2.25-1.63,3.43-2.41s2.36-1.57,3.41-2.38l.95,0a14,14,0,0,1,.38,2.71l0,.46a1.24,1.24,0,0,1-.14.79,1.1,1.1,0,0,1-.34.24c-.42.22-.85.42-1.29.61s-.88.35-1.33.5l-.18.07a1.49,1.49,0,0,0-.75.43.08.08,0,0,1,0,0,1.38,1.38,0,0,0,.08,1.51,2.59,2.59,0,0,1,.19.45c.09.43-.42.88-.86,1.19a20.35,20.35,0,0,1-7.61,3.21.51.51,0,0,0-.4.59.5.5,0,0,0,.5.4h.09a21.18,21.18,0,0,0,8-3.37c1-.7,1.43-1.44,1.27-2.21a3.31,3.31,0,0,0-.27-.69c-.07-.14-.2-.39-.17-.47a.93.93,0,0,1,.28-.12c.48-.15.95-.33,1.41-.52s.72-.32,1.08-.5l.48-.23a2.83,2.83,0,0,0,.41-.27,1.58,1.58,0,0,0,.31-.32,2.23,2.23,0,0,0,.29-1.39l0-.46a15.35,15.35,0,0,0-.36-2.66c4.24-.08,9,.14,12.88,2.45a14.09,14.09,0,0,1,2.94,2.38c.16.16.32.32.48.5s.28.33.42.5c1.49,1.78,7.23,13.9,8.14,16.19.07.18.14.36.22.54l-.34,0a23.39,23.39,0,0,0-4.87,1.27c-.65.24-1.34.51-2.07.85h-.07c-.55.25-1.05.51-1.54.78a19.43,19.43,0,0,0-5,4l0-.07L193,60.7a.5.5,0,0,0-.62-.33.49.49,0,0,0-.33.62c.43,1.43.78,2.55,1.09,3.53-.66,3.26-3.56,18.18-4.31,21.87H178.49a.36.36,0,0,0-.29.14s0,0,0,0a.34.34,0,0,0,0,.26l0,.24c.09.49.33,1.68.64,3.19h0l-34.16.12h0c.18-.91.42-2.06.68-3.31,0-.17.07-.33.1-.5s.07-.33.11-.5c.14-.68.29-1.37.44-2.06.36-1.72.74-3.47,1-4.94,0-.17.07-.33.11-.5s.06-.33.1-.5c.07-.39.15-.76.2-1.08l2.54-13.76.33-1.77L151,57.6a22.21,22.21,0,0,1,.95-3.86,1.42,1.42,0,0,1,.08-.18,13.21,13.21,0,0,1,.89-1.81,25.54,25.54,0,0,1,2.67-3.55l.93-1.06a.53.53,0,0,0,0-.71.5.5,0,0,0-.33-.12.49.49,0,0,0-.37.16l-.22.24c-.69.79-1.41,1.62-2.09,2.5-.25.32-.49.65-.73,1s-.52.78-.76,1.19a13.18,13.18,0,0,0-1,2,23.35,23.35,0,0,0-1,4l-1.17,6.34a52.15,52.15,0,0,1-5.57,4.47l-7.63-13.43c5.09-3.69,10.26-7.13,14.95-10a30.57,30.57,0,0,1,4.49-2.35A24.67,24.67,0,0,1,163.15,41.07Zm4.06-.48a8,8,0,0,0,2.44-3.83,13.37,13.37,0,0,0,5.54-2.21c.41-.28.65-.49.68-.51v0c.49-.15,1-.31,1.52-.5a.4.4,0,0,0,.22-.22.33.33,0,0,0,0-.26.37.37,0,0,0-.48-.23A17.85,17.85,0,0,1,167.89,34l-.1,0a4.93,4.93,0,0,1-1.9-.49,4.43,4.43,0,0,1-1.64-2.25c-.27-1.38-.46-2.69-.62-3.95l.13-.06a.37.37,0,0,0,.06-.52.33.33,0,0,0-.26-.13v0a.42.42,0,0,0-.16,0l-.22,0h-.12l-.24,0a1.58,1.58,0,0,1-.55-.12.58.58,0,0,1-.34-.42.88.88,0,0,1,.18-.63c.19-.21.37-.43.56-.65l.33-.4c.13-.16.26-.33.38-.5l.23-.28.1-.16a14.54,14.54,0,0,0,2-3.73,3.28,3.28,0,0,0-.08-2.29,1.87,1.87,0,0,0-1.49-1.13,17,17,0,0,1,3.51-6.86,16.38,16.38,0,0,1,8.08.06,8.06,8.06,0,0,1,5.61,5.44c.11.49.3,1.3,1,1.46a1.51,1.51,0,0,0,1.34-.56,3.17,3.17,0,0,1,.35-.29A1.52,1.52,0,0,1,186,16a3.58,3.58,0,0,1,.52,2.42,9.31,9.31,0,0,1-4,6.85h0a10.57,10.57,0,0,1-1.07.62.37.37,0,0,0-.17.51.36.36,0,0,0,.33.21.53.53,0,0,0,.17,0,7.6,7.6,0,0,0,.72-.43A3.34,3.34,0,0,0,184.07,28l-.38.5-.44.51a8.76,8.76,0,0,0-2.67,5.41s0,.08,0,.13h0v0a17.68,17.68,0,0,0,1.33,6l0,.1c-1.09.72-4.87,3.22-7.18,5.08-.22.17-.42.34-.6.5l-.23.19-.35.31-.08.07a24.18,24.18,0,0,0-4.5,4.77l-.85-4.84-.09-.5-.09-.5-.88-5ZM183.37,6.84a10.17,10.17,0,0,1,4.12,5.71l.06.18a.14.14,0,0,1,0,.09.22.22,0,0,1-.15.22l-.08,0a.18.18,0,0,1-.1,0,.23.23,0,0,1-.13-.14,11.94,11.94,0,0,0-1.44-3.09,9,9,0,0,0-2.55-2.53c-.31-.21-.61-.4-.91-.57a10.25,10.25,0,0,0-4.51-1.45l-.55,0a.24.24,0,0,1-.23-.26.15.15,0,0,1,0-.09.22.22,0,0,1,.22-.15,12.08,12.08,0,0,1,2.92.51A12.2,12.2,0,0,1,183.37,6.84ZM163.44,20.19A22.7,22.7,0,0,1,164,17H164a1.13,1.13,0,0,1,.92.69,2.51,2.51,0,0,1,.06,1.75A12.26,12.26,0,0,1,163.77,22c-.13.22-.28.44-.43.66C163.34,21.79,163.37,21,163.44,20.19Zm53.61,68.94c.21,1.6.37,2.87-.36,4.27a8.14,8.14,0,0,1-.6,1c-1.22,1.68-3.31,2.86-5.52,4.11-.63.35-1.26.72-1.89,1.1,0-.46.12-2.87.15-3.45a11.45,11.45,0,0,0-.27-4A3.06,3.06,0,0,0,206,90h0c-.3,0-3.25,0-3.88.07.29-.39,3.25-3.89,3.25-3.89a.38.38,0,0,0,0-.53.37.37,0,0,0-.28-.09.42.42,0,0,0-.25.12l-.87,1c-.46-1.45-1.07-3.11-1.67-4.72-.35-.93-.7-1.88-1-2.8s-.63-1.84-.87-2.67a19.75,19.75,0,0,1,5.26-4.12,17.73,17.73,0,0,1,2.49-1.1l.55-.19.54-.15a9.09,9.09,0,0,1,2.09-.31A99.94,99.94,0,0,1,217.05,89.13Zm-14.89,14.73-.49-.09-.49-.1c-.85-.19-1.77-.4-2.76-.66s-1.47-.83-1.39-1.54a.93.93,0,0,1,.95-.89h.14l3.62.47.49.06.5.06.13,0a.38.38,0,0,0,.42-.32.37.37,0,0,0-.32-.42h-.07l-.5-.07-.5-.06-1.41-.18-2.26-.29h0A1.4,1.4,0,0,1,197,98.63a1,1,0,0,1,.94-1.07H203a.38.38,0,0,0,.38-.37c0-.18,0-.27-.25-.32l-.14,0v0h-6.3a1.7,1.7,0,0,1-.48-.1,1,1,0,0,1-.35-.25.92.92,0,0,1-.19-.33,1.25,1.25,0,0,1-.07-.26,1.33,1.33,0,0,1,.89-1.13l.23,0h.2l.4,0,.9-.07.53,0,.51,0,2.29-.16,1.63-.1h0a.37.37,0,0,0,.35-.4.38.38,0,0,0-.2-.3.46.46,0,0,0-.2-.05l-1.63.11h0l-2.17.13-.5,0-.5,0-.81.07-.39,0-.39,0h-.09a.69.69,0,0,1-.54-.18,1.81,1.81,0,0,1-.52-1.16,1.34,1.34,0,0,1,.78-1.16.57.57,0,0,1,.21-.07l.18,0,.42-.06.24,0,.58-.07.57-.07c1-.11,2-.2,3-.26.72,0,1.48-.07,2.29-.08h2a2.37,2.37,0,0,1,1.89,1.65,10.2,10.2,0,0,1,.23,3.71c0,.59-.05,1.3-.08,2,0,.53-.05,1-.07,1.51,0,.14,0,.3,0,.43-.06,1.2-.18,3.7-1.09,4.1C206.18,104.42,204.51,104.31,202.16,103.86Zm-.72,66,.09.5,3.56,21.38,0,.08.07.42v.08l.07.42v.08l1.23,7.38,0,.07H201.8v-.07l-1.58-7.38v0l-.11-.48v0l-.1-.48v0l-4.62-21.66-.11-.5-.1-.5-5.11-23.93h7.28l4,24.14Zm13,17.65a2.09,2.09,0,0,1,1,0,14.6,14.6,0,0,1,2.13,1.1l.38.22a.66.66,0,0,0,.66.08.38.38,0,0,1,.51.13.37.37,0,0,1-.11.51,1.16,1.16,0,0,1-.62.16,1.62,1.62,0,0,1-.81-.23l-.39-.22a16.84,16.84,0,0,0-1.94-1,1.48,1.48,0,0,0-.67,0,.36.36,0,0,1-.45-.26A.37.37,0,0,1,214.46,187.47Zm-2.76.85a1.26,1.26,0,0,1-.85.28.78.78,0,0,1-.48-.13c-.47-.36.07-1.4.08-1.41a.35.35,0,0,1,.29-.18.34.34,0,0,1,.31.14l.67.81A.37.37,0,0,1,211.7,188.32ZM210.1,180a.37.37,0,1,1,.59.45.73.73,0,0,0,0,.67l.19.41a13.86,13.86,0,0,1,1,2.24,2.19,2.19,0,0,1-.08,1.06.36.36,0,0,1-.35.25.3.3,0,0,1-.13,0,.39.39,0,0,1-.23-.48,1.37,1.37,0,0,0,.06-.67,17.23,17.23,0,0,0-.89-2.06l-.2-.41A1.4,1.4,0,0,1,210.1,180Zm-2.58,20.13-1.23-7.38H211c1.09,0,2.19.06,3.25.09h.53c.62,0,1.25,0,1.88,0a28.79,28.79,0,0,0,2.94-.14h10.07a3.69,3.69,0,1,1,0,7.38Zm-76-64.18h-3.64c-.13-2.16-.27-4.29-.4-6.38l0-.61h68.42v7H131.55Zm-8.89,39.74-5.23,24.51h-4.71L116,180.35A73,73,0,0,0,122.66,175.72Zm-6.46,3.63-.57.36-.56.35c-5.56,3.47-13.14,7.68-22.37,12.38a.79.79,0,0,1-1-1.21c6.22-7.16,16.78-20.1,17.65-26.31a73.1,73.1,0,0,0-.09-16.75h0V148h0a36,36,0,0,1,10.87-.55l.35,0,.5,0,.5.06.11,0c.76,9.62,2.21,14.17,3.19,17.25l.11.35c.11.35.21.67.3,1s.21.72.29,1.06a9.33,9.33,0,0,1,.13,4,4.78,4.78,0,0,1-1.45,2.13c-.19.2-.41.4-.64.61l-.63.55A65.92,65.92,0,0,1,116.2,179.35Zm-13.82-42.87c0-.16,0-.33,0-.5-.1-2.37-.2-4.78-.29-7l0-.5c0-.17,0-.34,0-.5-.12-2.72-.24-5.07-.36-6.54l0-.49-.84-17.72c0-1.69,0-3.55.08-5.77v-.11c0-2.35.14-7.25,1.78-10.28.1-.18.21-.34.31-.5s.24-.34.37-.5a4.73,4.73,0,0,1,.73-.75c5-3.9,11.24-1.54,14.26-.4l1,.35c.73.26,1.43.53,2.1.8l1.18.5,1.12.5a88,88,0,0,1,8.95,4.9,105.18,105.18,0,0,0,9.52,5.26l.34.16a.61.61,0,0,0,.13,0,.54.54,0,0,0,.31,0,.52.52,0,0,0,.26-.35l.65-3h35.71c.68,3.39,1.37,6.79,1.46,7.23a2.2,2.2,0,0,0,2.25,1.83l2,0c-1.08,4.87-2.17,9.67-2.71,11.65l0,.16a17.54,17.54,0,0,1-6.15,10.16A11.33,11.33,0,0,1,171,127.5l-.49.09-.5.07a65.72,65.72,0,0,1-8,.33H127.4c-.37-5.75-.74-11.72-1.09-18.32,0-.47-.07-.94-.11-1.4a11.75,11.75,0,0,1,0-2.91,1.33,1.33,0,0,1,.3-.78,1.5,1.5,0,0,1,1-.19c4.52,0,6.48,0,9.68.07l3.52,0h.52a.47.47,0,0,0,.44-.48.48.48,0,0,0-.25-.43.41.41,0,0,0-.24-.08H141l-3.73,0c-3.2,0-5.16-.06-9.69-.07a2.4,2.4,0,0,0-1.64.44,2.24,2.24,0,0,0-.63,1.38,13.41,13.41,0,0,0-.06,3.16c0,.45,2.36,38.54,2.36,38.54a8.91,8.91,0,0,0-4.5-2l-1.08-.2-.5-.07-.49-.07h0a41.19,41.19,0,0,0-5-.27c-6.12,0-11.28,1.48-13.2,3.07-.11-2.3-.25-5.75-.39-9.37,0-.34,0-.67,0-1C102.39,136.82,102.38,136.65,102.38,136.48ZM57.05,200.23H52.34l.11-.65c1.63-.17,3.26-.36,4.86-.55Zm-4.48-1.41-.51.05-.52.06c-4.19.42-8.87.81-14,1.15a.92.92,0,0,1-.46-1.74c4.47-2.18,10.7-5.37,16-8.67l.56-.36.57-.36a50.32,50.32,0,0,0,6.22-4.58l.64-.59c.23-.22.44-.44.65-.66a10.87,10.87,0,0,0,1.32-1.69A70.25,70.25,0,0,0,68.84,169,43,43,0,0,0,80,170.7h.72a67.14,67.14,0,0,0-3.48,16.41c-.26,2.8-.42,4.48-1.78,6.57-1.07,1.64-7,3.17-16.94,4.46l-.52.07-.53.06C55.93,198.46,54.29,198.64,52.57,198.82Zm15.67-30.41h0a70.19,70.19,0,0,1-5.83,12.64c-.11.17-.22.34-.35.52l3.63-17A16.11,16.11,0,0,0,69,166.1Zm3.17-37.94Q70.69,133.32,70,136H63v-7h8.83C71.66,129.48,71.54,130,71.41,130.47Zm-9.89,14.7H67.2a155.05,155.05,0,0,0-4.32,15.58c0,.11-.08,1.57,1.92,3.18l-4.09,19.18A41.79,41.79,0,0,1,54.38,188Zm14,21.42c-5.17-.74-8-2-9.66-3.06-.16-.11-.31-.22-.44-.33a4.11,4.11,0,0,1-.43-.37,3.16,3.16,0,0,1-1.18-1.94,157.89,157.89,0,0,1,4.39-15.72c.06-.17.11-.33.16-.5s0-.16.08-.24.06-.18.08-.26c.32-1,.65-2,1-3.09.14-.44.27-.91.41-1.37h0q.41-1.34.78-2.73l.14-.5c0-.17.09-.33.14-.5.45-1.7.89-3.46,1.35-5.27.15-.57.29-1.15.44-1.72,0-.17.08-.34.13-.5l.12-.5a99.16,99.16,0,0,1,4.66-14.72,16.24,16.24,0,0,1,4.07-6c4.21-3.5,9.22-3.44,15.56-3.36l2.28,0L97.18,128l-.05.5-.06.5-.71,7,0,.5,0,.5-.08.72-.22.71c-1.16,3.66-2.36,7.45-3.43,11.22-1.65,5.81-2.47,9.35-3.83,15.22C88.69,164.88,87.29,168.29,75.57,166.59ZM99.2,131.5a11.72,11.72,0,0,1,.5-1.36,2.15,2.15,0,0,1,1.22-1.15h.14c.1,2.21.2,4.62.3,7H97.78Zm70.35,36.94,1.69,7.94c-1.3-.52-2.52-1.35-2.82-2.27a5.53,5.53,0,0,1,.7-5.1C169.25,168.82,169.4,168.63,169.55,168.44Zm12.61,2.4a29.5,29.5,0,0,0-3.7,1.62l-1.66-9.94a5.33,5.33,0,0,0,1.87-4,6.2,6.2,0,0,0-.16-1.26,4.59,4.59,0,0,0-3.16-3.47L172.54,137h14.74l6.86,32.14A43.37,43.37,0,0,0,182.16,170.84ZM144.07,93l.35-1.65h0L179,91.27c.11.57.23,1.17.35,1.77H144.07ZM137.9,73a.55.55,0,0,0,.36.15.65.65,0,0,0,.2,0,34.67,34.67,0,0,0,5.4-3,.52.52,0,0,0,.11-.64l-.23-.41a52.26,52.26,0,0,0,4.78-3.72l-2.11,11.46c-.07.37-.15.8-.24,1.26H123.64a35.67,35.67,0,0,0,4.91-2.34l8-4.34C137,72,137.44,72.49,137.9,73Zm41,14.16h14.81c-.09.42-2.75,13.69-2.81,14a1.47,1.47,0,0,1-1.52,1.24h-6.15a1.47,1.47,0,0,1-1.52-1.24Zm16.7,7.16,0,0a2,2,0,0,0-.81,1.56s0,0,0,.06a2.46,2.46,0,0,1-1.44-2.64,2.17,2.17,0,0,1,1.66-1.67,1.73,1.73,0,0,0-.24,1A2.52,2.52,0,0,0,195.64,94.3Zm.94,3.24a1.8,1.8,0,0,0-.25.57,4.81,4.81,0,0,1-1.74.34,4.68,4.68,0,0,1-2.23-.58c0-.16.07-.33.1-.51s.07-.33.1-.51a3.59,3.59,0,0,0,3.14.41,1.87,1.87,0,0,0,.73.26Zm-2-7.63a3.5,3.5,0,0,0-.65.07c0-.18.07-.35.1-.51s.07-.35.11-.51a3.12,3.12,0,0,1,.44,0,4.73,4.73,0,0,1,3.45,1.5l-.64.08-.68.09A3.74,3.74,0,0,0,194.59,89.91Zm-51.06.89-1.17,5.43c-3.53-1.69-6.41-3.43-9.2-5.1-2.34-1.41-4.62-2.77-7.16-4h18.28C144,88.54,143.7,89.86,143.53,90.8Zm-18.3,72.91a59.9,59.9,0,0,1-2.34-11,10,10,0,0,0,3.44-1.33,4.77,4.77,0,0,0,2-2.32ZM171.53,137l2.77,16.62c-.76,0-2.57,0-3.26.51a1.93,1.93,0,0,0-.71,1.42,1.46,1.46,0,0,0,.49,1.15,4.26,4.26,0,0,0,2.47.45,7.76,7.76,0,0,1,1,.06,1.13,1.13,0,0,1,.73.69l.75,4.48v0h0l1.76,10.55c-1.81.95-3.77,2.06-5.33,3.09L163.86,137ZM167,192.78l2.26,0,5.47.08h1c1.65,0,3.33,0,5.06,0h1l3.43-.09h0l0-.5h0c0-.16,0-.33.05-.5h0A22,22,0,0,1,186,188a15.33,15.33,0,0,1,2.26-4.72,7.69,7.69,0,0,1,4.43-3.22.37.37,0,0,1,.45.27.38.38,0,0,1-.28.46,7,7,0,0,0-4,2.92,14.75,14.75,0,0,0-2.15,4.51,12.37,12.37,0,0,0-.31,1.36c-.13.68-.24,1.45-.32,2.17,0,.17,0,.33-.05.5h0l0,.5c0,.86,0,1.73.09,2.61a4.17,4.17,0,0,0,1.13,3.09,2.32,2.32,0,0,0,.72.41l0-.54,0-.55h0a.25.25,0,0,1,.5,0v.2l0,.49,0,.52a3.51,3.51,0,0,0,.66.07,4.08,4.08,0,0,0,.68-.06l0-.51c0-.19,0-.36,0-.5v-.09a.25.25,0,0,1,.25-.25.24.24,0,0,1,.24.22v0c0,.12,0,.3,0,.49l0,.51h.05a2.14,2.14,0,0,0,1.26-.79,2.3,2.3,0,0,0,.3-1.21l.22-4.15h0c0-.12,0-.23,0-.35v-.14h0c0-.17,0-.33,0-.49h0c0-.2,0-.4,0-.61s.07-.56.13-.85a5.65,5.65,0,0,1,1.71-3.1.36.36,0,0,1,.52,0,.38.38,0,0,1,0,.53,4.89,4.89,0,0,0-1.46,2.69,8.1,8.1,0,0,0-.16,1.3h0c0,.16,0,.33,0,.49h0c0,.16,0,.33,0,.49h6.29l1.57,7.38H149.62a3.69,3.69,0,1,1,0-7.38ZM212.73,68.57a32,32,0,0,0-3.2.76l-.55.16-.54.18a23.45,23.45,0,0,0-5.7,2.75c-.6.41-1.16.86-1.71,1.3l-2.59,2a4.23,4.23,0,0,0-.88.88,25.32,25.32,0,0,1-1.64-4.25c.14-.22.29-.42.43-.63,0,0,.07,0,.1-.08a17.08,17.08,0,0,1,5.07-4.31c.54-.29,1.1-.58,1.68-.86.8-.36,1.55-.66,2.25-.91a26.21,26.21,0,0,1,4.06-1l.53-.08.53-.07c.38,0,.73-.07,1-.08a37.26,37.26,0,0,1,1.73,4.12C213.1,68.52,212.88,68.55,212.73,68.57ZM76.63,70.21a4.15,4.15,0,0,1,.61.32,4.18,4.18,0,0,0-1.39,3.37,2.74,2.74,0,0,0,0,.5c0,.13,0,.25.08.37l-1.72,0h-.83c0-.13,0-.26,0-.4s0-.33,0-.5a14.18,14.18,0,0,1,1-4.09A5.51,5.51,0,0,1,76.63,70.21Zm1.22,3.69a2.94,2.94,0,0,1-.54.5l0,0a2.9,2.9,0,0,1-.55.24s0,0,0,0,0-.15,0-.23a2.73,2.73,0,0,1-.05-.5A3.44,3.44,0,0,1,77.81,71a2.17,2.17,0,0,1,.6,1.5A2.22,2.22,0,0,1,77.85,73.9Zm-21.33-.16-.23-1H49.64l.19.88a.37.37,0,0,1-.08.32.38.38,0,0,1-.21.13.37.37,0,0,1-.36-.13.35.35,0,0,1-.08-.16l-.29-1.34a.39.39,0,0,1,.08-.31.37.37,0,0,1,.29-.14H56.6a.36.36,0,0,1,.36.3l.29,1.33a.4.4,0,0,1-.08.32A.42.42,0,0,1,57,74h-.08a.36.36,0,0,1-.27-.14A.37.37,0,0,1,56.52,73.74ZM47.15,63.12a.38.38,0,0,1-.37-.29L41.89,39.91a.37.37,0,0,1,.07-.32.4.4,0,0,1,.29-.14H75.79a.38.38,0,0,1,.37.3l4.89,22.92A.38.38,0,0,1,81,63a.37.37,0,0,1-.29.14ZM56.47,70a.34.34,0,0,1-.07.31.37.37,0,0,1-.29.14H48.69a.36.36,0,0,1-.36-.29l-1.09-5.07a.41.41,0,0,1,.08-.32.39.39,0,0,1,.29-.13H55a.36.36,0,0,1,.36.29ZM41.24,36.39h0a1.6,1.6,0,0,1,1.6-1.6,1.07,1.07,0,0,1,.51.13,1.61,1.61,0,0,1,.63-.13c.92,0,1.26.54,1.26.87a.63.63,0,0,1-.63.63c-.35,0-.54-.18-.78-.55a1.89,1.89,0,0,0-.49-.56,1.36,1.36,0,0,0,0,2.42,1.89,1.89,0,0,0,.49-.56c.31-.47.5-.56.78-.56a.63.63,0,0,1,.63.63c0,.34-.34.87-1.26.87a1.61,1.61,0,0,1-.63-.13,1.07,1.07,0,0,1-.51.13A1.6,1.6,0,0,1,41.24,36.39Zm7.57.13a.37.37,0,0,1,.37-.38H53a.38.38,0,0,1,.38.38.37.37,0,0,1-.38.37H49.18A.36.36,0,0,1,48.81,36.52Zm7.36,0a.38.38,0,0,1,.38-.38h3.82a.38.38,0,0,1,.38.38.37.37,0,0,1-.38.37H56.55A.37.37,0,0,1,56.17,36.52Zm7.37,0a.38.38,0,0,1,.37-.38h3.83a.38.38,0,0,1,.37.38.37.37,0,0,1-.37.37H63.91A.37.37,0,0,1,63.54,36.52Zm7.36,0a.38.38,0,0,1,.38-.38H75.1a.38.38,0,0,1,.38.38.37.37,0,0,1-.38.37H71.28A.37.37,0,0,1,70.9,36.52ZM59.2,64.66H81.58A.37.37,0,0,1,82,65a.38.38,0,0,1-.37.38H59.2a.38.38,0,0,1-.37-.38A.37.37,0,0,1,59.2,64.66ZM35.15,95.26h9.62l-22.41,105H17.65ZM36.72,74.9H64.47l.09,0a1.54,1.54,0,0,0,1,0h6.62a2.34,2.34,0,0,0-2,2.26,1.8,1.8,0,0,0,.18.92H36.72ZM23.39,200.23,45.87,94.87h0l1.67-7.79h54c-1.53,3.21-1.62,7.76-1.67,10.26v.11c0,1.91-.06,3.57-.07,5.07a.32.32,0,0,0,0,.09l0,.3-2.36,0c-6.3-.08-11.73-.15-16.22,3.59a17.23,17.23,0,0,0-4.35,6.39A101.43,101.43,0,0,0,72,128H62.46a.5.5,0,0,0-.5.5v8l-8.71,52.23a182.73,182.73,0,0,1-16.51,9,1.63,1.63,0,0,0-.88,1.93,1.92,1.92,0,0,0,.32.64Zm28-.54-.09.54H45.56C47.47,200.07,49.44,199.89,51.41,199.69Zm7-.8c8.76-1.13,16.35-2.7,17.73-4.81s1.63-4.1,1.89-6.91a67.78,67.78,0,0,1,3.61-16.73l0,0,.79-2.35c6.17-.23,7.14-2.58,7.26-3,1.36-5.85,2.18-9.38,3.82-15.17,1.06-3.75,2.26-7.53,3.43-11.21l.54-1.71h3.94c0,.35,0,.7,0,1.05.17,4.35.33,8.46.46,10.64a.51.51,0,0,0,.17.35c.47,2.67,5.76,3.61,6.88,3.78a62.1,62.1,0,0,1-.3,12c-.84,6-11.3,18.82-17.46,25.92a1.49,1.49,0,0,0-.06,1.94,1.53,1.53,0,0,0,1.2.61,1.59,1.59,0,0,0,.71-.18c6.34-3.23,15-7.79,21.86-12.06l-3.2,19.18H58.08Zm60.09,1.34,5.46-25.57c1.42-1.27,2.31-2.39,2.46-3.26a11.18,11.18,0,0,0-.53-5.76L132,137h30.88l5.84,27.35a14.94,14.94,0,0,0-3.83,5.51,9.93,9.93,0,0,0-.79,4.35,8.83,8.83,0,0,0,1.62,4.66,10,10,0,0,0,1.63,1.42c-3.88,4.07-7.86,9.56-8.08,11.51h-9.6a4.68,4.68,0,0,0-2.79,8.45Z"/></svg>