<svg id="Layer_1" data-name="Layer 1" xmlns="http://www.w3.org/2000/svg" viewBox="0 0 250.89 199.75"><path d="M179.52,78.21h34.23a.5.5,0,0,0,.5-.45l1.92-20.41A.52.52,0,0,0,216,57a.51.51,0,0,0-.37-.16H180.8a.5.5,0,0,0-.5.47L179,77.68a.5.5,0,0,0,.13.37A.49.49,0,0,0,179.52,78.21Zm10.85-5.92A5.53,5.53,0,0,1,194.05,69l.4,0a1.37,1.37,0,0,0,1.13-.68l.14-.28a1.42,1.42,0,0,0-.21-1.42,4.64,4.64,0,0,1-.84-2,6,6,0,0,1,.74-3.88A3.61,3.61,0,0,1,198.54,59a2.7,2.7,0,0,1,2.52,1.72,5.14,5.14,0,0,1,.18,3.33,5,5,0,0,1-1.11,2.24l-.33.31a1.38,1.38,0,0,0-.46,1.4,2.17,2.17,0,0,0,.07.24,1.42,1.42,0,0,0,1.17,1,5.19,5.19,0,0,1,3.45,2.3,9,9,0,0,1,.67,5.23.24.24,0,0,1-.24.21h0l-14.68,0a.27.27,0,0,1-.19-.08.26.26,0,0,1-.06-.19A12.39,12.39,0,0,1,190.37,72.29Z"/><path d="M42.62,71.05a4.78,4.78,0,0,0,2.3-.58,7.39,7.39,0,0,0,2.87.58c4.19,0,5.76-2.42,5.76-3.94a2.9,2.9,0,0,0-2.9-2.89c-1.26,0-2.15.4-3.53,2.54a8.76,8.76,0,0,1-2.25,2.55,6.21,6.21,0,0,1,0-11,8.76,8.76,0,0,1,2.25,2.55c1.08,1.68,1.93,2.54,3.53,2.54a2.9,2.9,0,0,0,2.9-2.89c0-1.52-1.57-3.94-5.76-3.94a7.39,7.39,0,0,0-2.87.58,4.78,4.78,0,0,0-2.3-.58,7.29,7.29,0,0,0-7.3,7.25h0A7.29,7.29,0,0,0,42.62,71.05ZM48,67.31c1-1.64,1.6-2.07,2.66-2.07a1.87,1.87,0,0,1,1.87,1.87c0,2-2.77,2.92-4.73,2.92A6.55,6.55,0,0,1,46,69.76,11.12,11.12,0,0,0,48,67.31Zm-.2-9.74c3.26,0,4.73,1.71,4.73,2.92a1.87,1.87,0,0,1-1.87,1.86c-1.06,0-1.61-.42-2.66-2.06a11.12,11.12,0,0,0-2-2.45A6.55,6.55,0,0,1,47.79,57.57Zm-5.17,0a3.6,3.6,0,0,1,1.15.18,7.23,7.23,0,0,0,0,12.1,3.9,3.9,0,0,1-1.15.18,6.23,6.23,0,1,1,0-12.46Z"/><path d="M250.39,198.75H236.27c-.08-10.16-2.7-24.66-6.87-38-4-12.63-8.76-22.65-13.82-28.95L224,50.92a.51.51,0,0,0-.5-.55H169.08c-.17-2.86-1-6-3.53-7.63,0-1.22-.08-2.47-.18-3.73a62.16,62.16,0,0,0-1.94-11.58A41.84,41.84,0,0,0,157.9,15a32.51,32.51,0,0,0-11.07-10.2A41.3,41.3,0,0,0,128.53.07,50.77,50.77,0,0,0,108,3a31.58,31.58,0,0,0-12.7,8.84,34.79,34.79,0,0,0-6.49,12,53,53,0,0,0-2.29,12.05c-.18,2.2-.23,4.39-.24,6.45C83,43.65,82,47.19,81.81,50.37H27.41a.5.5,0,0,0-.37.17.47.47,0,0,0-.12.38l8.38,80.82c-12.46,15.21-20.54,48.58-20.68,67H.5a.5.5,0,0,0-.5.5.5.5,0,0,0,.5.5H250.39a.5.5,0,0,0,.5-.5A.5.5,0,0,0,250.39,198.75Zm-31.27,0,2.4-18.18a.49.49,0,0,0-.12-.4A.52.52,0,0,0,221,180H203.58q0-5.94-.2-11.85a.5.5,0,1,0-1,0q.24,5.9.19,11.81h-154c0-5.29.14-10.59.53-15.87a.49.49,0,0,0-.46-.53.5.5,0,0,0-.54.46q-.59,8-.53,15.94H29.86a.5.5,0,0,0-.37.17.52.52,0,0,0-.13.38l1.6,18.2H15.62c.14-25,10.86-54.57,20.93-66.86a26.44,26.44,0,0,1,3.11-3.25,66.15,66.15,0,0,1,10.12-7,101.66,101.66,0,0,1,40.05-13.06c0,.06.08.12.11.19s.2.34.31.5.13.2.2.3.23.32.36.48l.23.28c.13.15.26.31.4.46l.26.26c.15.15.29.3.45.44l.28.25.49.42.31.23c.17.14.35.27.53.4l.33.22.56.38.35.21.6.36.37.19.63.34.39.19.66.31.4.18.69.3.41.16.72.28.42.15.74.27.43.14.76.24.43.13.79.23.44.12.8.21.44.11.81.2.45.1.82.18.45.09.83.17.44.08.84.15.45.07.83.14.45.06.83.12.43.06.84.11.43,0,.83.1.42,0,.83.08.38,0,.84.08.39,0,.81.06.37,0,.8,0h.39l.74,0h.41l.69,0h.46l.6,0h1c.93,0,1.84,0,2.75,0l.67,0c.67,0,1.35-.06,2-.11.26,0,.51,0,.76-.06.62-.06,1.25-.1,1.85-.17l.83-.11c.58-.07,1.15-.13,1.71-.22l.86-.14c.54-.09,1.08-.17,1.61-.27l.87-.19c.5-.1,1-.2,1.51-.32l.84-.22c.49-.12,1-.24,1.45-.37l.83-.25,1.37-.43.81-.29c.43-.15.87-.3,1.29-.47l.78-.32,1.22-.52c.25-.11.49-.24.74-.36s.78-.37,1.16-.57.46-.25.69-.38.74-.4,1.1-.62.42-.27.64-.41.7-.44,1-.67.4-.29.59-.44.66-.47,1-.72.35-.3.53-.45.61-.51.9-.78l.48-.48c.24-.24.49-.47.72-.71a101.16,101.16,0,0,1,43.55,13.08,66.15,66.15,0,0,1,10.12,7,27.9,27.9,0,0,1,3.14,3.25c12,14.42,20.75,48.62,20.9,66.86ZM81.77,51.37a25.73,25.73,0,0,0,.43,4.77c.9,4.56,2.41,7.55,4.48,8.89a5.27,5.27,0,0,0,2.94.85,8.86,8.86,0,0,0,2.09-.28,4.1,4.1,0,0,0,3-2.49A4.06,4.06,0,0,0,96,64a2.8,2.8,0,0,0,.95.17,2.74,2.74,0,0,0,.81-.12,2.43,2.43,0,0,0,.73-.39,36.87,36.87,0,0,0,2.61,6.14h0l.16.25c.73,1.56,1.47,3,2.18,4.44,2.51,5,4.68,9.26,4.68,14a20.84,20.84,0,0,1-.71,4.58c-1-.08-9.83-.8-12.23,1.65a1.3,1.3,0,0,0-.25.34,73.39,73.39,0,0,0-5.11,12.11l-.13.37a102.86,102.86,0,0,0-40.46,13.19A68.13,68.13,0,0,0,39,127.88a29.65,29.65,0,0,0-2.81,2.8L28,51.37Zm141.15,0-8.24,79.34a27.81,27.81,0,0,0-2.8-2.83,68.13,68.13,0,0,0-10.27-7.14,102.2,102.2,0,0,0-43.84-13.19,52.48,52.48,0,0,0-4.36-12.21l-.29-.63h0l0,0h0c-.08-.12-.05-.11-.14-.19-2.52-2.11-10-1.59-11.09-1.5a42.91,42.91,0,0,1-.54-4.41c0-6.55,2.85-11.56,5.88-16.86l.88-1.29.36-.52a38.18,38.18,0,0,0,3.45-6.31,2.14,2.14,0,0,0,.8.48,2.89,2.89,0,0,0,.88.14,2.62,2.62,0,0,0,.88-.15,4.15,4.15,0,0,0,1.65-1.18,4.09,4.09,0,0,0,3.09,2.76,8.7,8.7,0,0,0,2.08.28A5.27,5.27,0,0,0,164.2,65c2.07-1.34,3.58-4.33,4.48-8.89a24.83,24.83,0,0,0,.43-4.77Zm-102,67.23h-.15l-1,0h-.13l-1-.06h-.14l-1-.07h-.11l-1.09-.1h-.15l-1.07-.11-.18,0-1.06-.12-.17,0-1.08-.14-.19,0-1.06-.16-.21,0-1.05-.17-.24,0-1-.18-.23,0-1-.2-.27-.06-1-.21-.29-.07-.94-.23-.28-.07-.93-.24-.28-.09-.91-.26-.28-.09-.88-.28-.29-.1-.84-.3-.3-.11-.8-.32-.29-.12-.77-.33-.29-.14-.72-.35-.29-.14-.69-.37-.26-.16c-.22-.13-.44-.25-.65-.39l-.26-.17-.61-.4-.24-.18-.56-.43-.23-.2c-.18-.14-.35-.29-.52-.45l-.21-.2-.46-.47c-.07-.07-.13-.15-.19-.22l-.41-.49c-.06-.08-.11-.16-.17-.23a6,6,0,0,1-.36-.52c-.05-.08-.1-.16-.14-.24l-.25-.41v0l.15-.44a90.5,90.5,0,0,1,3.9-9.81,6.44,6.44,0,0,0,4,3.46,24.21,24.21,0,0,0,5,1.29l.42.05.41.06c1.52.2,3.1.33,4.76.44,11.57.77,23.73,1.07,35.08-1.51h.09l.4-.09.4-.09c.62-.14,1.52-.37,2.51-.69l1-.29c1.4-.43,3.27-1.16,4.18-2.58.09-.12.18-.23.25-.34v0a45.6,45.6,0,0,1,3.57,10.46h0l-.44.43c-.25.25-.5.51-.77.76s-.36.31-.53.46-.56.49-.86.73l-.58.43c-.31.23-.61.47-.93.69s-.42.26-.62.4-.67.44-1,.64l-.64.37c-.37.2-.72.41-1.1.6l-.68.34c-.39.19-.77.38-1.17.56l-.71.3c-.41.17-.82.35-1.25.51-.24.1-.5.18-.74.27l-1.31.47-.79.24-1.36.41-.83.22-1.41.36-.87.18c-.49.1-1,.21-1.46.3l-.92.16-1.49.25-1,.13c-.49.06-1,.13-1.47.18l-1.14.1c-.47.05-.94.1-1.42.13l-1.35.07-1.27.07c-.77,0-1.56,0-2.35,0H124C123,118.66,122,118.64,120.87,118.6Zm33.32-55.28a1.94,1.94,0,0,1-1.26,0,1.37,1.37,0,0,1-.73-.57A41.36,41.36,0,0,0,155,51.37c0-.17,0-.33,0-.5s0-.34.05-.5c.09-1.25.13-2.42.13-3.5,0-.2,0-.49,0-.85,0-1.13,0-2.23,0-3.32a3.41,3.41,0,0,1,3.4,1,4.88,4.88,0,0,1,.77,1.37,9.55,9.55,0,0,1,.48,2.3,21.15,21.15,0,0,1,.07,3c0,.17,0,.33,0,.5s0,.33,0,.5a21.13,21.13,0,0,1-3.08,9.19c-.18.3-.36.61-.57.9A4.69,4.69,0,0,1,154.19,63.32ZM91.64,43.41a3.6,3.6,0,0,0-.89-.92c0-1.05,0-2.1.06-3.15a50.1,50.1,0,0,1,1.37-10,31.91,31.91,0,0,1,4.57-10.46,26.18,26.18,0,0,1,9.56-8.34,36.36,36.36,0,0,1,12.07-3.58,25.42,25.42,0,0,0-14.2,7.24c-7.81,8.11-8.61,20.46-8.54,27.68a4.28,4.28,0,0,0-3.77,1.28C91.79,43.21,91.72,43.31,91.64,43.41Zm67.64,0-.08-.12a4.22,4.22,0,0,0-4-1.33c-.3-12.45-3.44-21.85-9.39-27.94a25.52,25.52,0,0,0-15.24-7.33,38.88,38.88,0,0,1,10.77,2.41,28.29,28.29,0,0,1,11.15,7.79,32.09,32.09,0,0,1,5.87,10.4,48,48,0,0,1,2.31,10.4q.24,2.09.33,4.38A3.85,3.85,0,0,0,159.28,43.36Zm-65,18-.14-.22A21.27,21.27,0,0,1,91,51.37c0-.17,0-.33,0-.5s0-.33,0-.5a19.08,19.08,0,0,1,.15-3.12,10.48,10.48,0,0,1,.44-2,4.84,4.84,0,0,1,.92-1.64,3.47,3.47,0,0,1,3.21-1c0,1,.06,2,.09,2.71s0,1.18,0,1.55c0,1.21.06,2.37.13,3.5,0,.17,0,.33,0,.5l0,.5a52.41,52.41,0,0,0,2.29,11.52,1.39,1.39,0,0,1-.7.47,1.94,1.94,0,0,1-1.26,0A4.72,4.72,0,0,1,94.32,61.41Zm18.13,23.65a4.44,4.44,0,0,0,1,.9,3.62,3.62,0,0,0,1.85.35l9.48,0,9.49,0a3.57,3.57,0,0,0,1.84-.35,4.22,4.22,0,0,0,1-.9,96,96,0,0,0,6.27-7.94,25.78,25.78,0,0,0-2.84,11.43,35.06,35.06,0,0,0,1.1,6.94,17.64,17.64,0,0,0,1.93,5.16c-11.07,2.42-22.93,2.11-34.23,1.36-1.47-.1-2.88-.21-4.24-.37a28.29,28.29,0,0,0,3.8-13.11c0-4.63-2-8.77-4.31-13.44A107.23,107.23,0,0,0,112.45,85.06Z"/></svg>